G75*
%MOIN*%
%OFA0B0*%
%FSLAX25Y25*%
%IPPOS*%
%LPD*%
%AMOC8*
5,1,8,0,0,1.08239X$1,22.5*
%
%ADD10C,0.00000*%
%ADD11R,0.10000X0.20000*%
D10*
X0035280Y0038800D02*
X0041933Y0034115D01*
X0041933Y0030611D01*
X0140358Y0018800D01*
X0278154Y0018800D01*
X0376579Y0030611D01*
X0376579Y0034115D01*
X0383272Y0038800D01*
X0383272Y0341635D01*
X0354138Y0341635D01*
X0354138Y0408564D01*
X0317524Y0412501D01*
X0228941Y0412501D01*
X0228941Y0373131D01*
X0189571Y0373131D01*
X0189571Y0412501D01*
X0100988Y0412501D01*
X0064374Y0408564D01*
X0064374Y0341635D01*
X0035240Y0341635D01*
X0035280Y0038800D01*
X0041933Y0030611D02*
X0140358Y0018800D01*
X0278154Y0018800D01*
X0376579Y0030611D01*
X0105535Y0089666D02*
X0105537Y0089765D01*
X0105543Y0089864D01*
X0105553Y0089963D01*
X0105567Y0090061D01*
X0105585Y0090158D01*
X0105607Y0090255D01*
X0105632Y0090351D01*
X0105662Y0090445D01*
X0105695Y0090539D01*
X0105732Y0090631D01*
X0105773Y0090721D01*
X0105817Y0090810D01*
X0105865Y0090896D01*
X0105916Y0090981D01*
X0105971Y0091064D01*
X0106029Y0091144D01*
X0106090Y0091222D01*
X0106154Y0091298D01*
X0106221Y0091371D01*
X0106291Y0091441D01*
X0106364Y0091508D01*
X0106440Y0091572D01*
X0106518Y0091633D01*
X0106598Y0091691D01*
X0106681Y0091746D01*
X0106765Y0091797D01*
X0106852Y0091845D01*
X0106941Y0091889D01*
X0107031Y0091930D01*
X0107123Y0091967D01*
X0107217Y0092000D01*
X0107311Y0092030D01*
X0107407Y0092055D01*
X0107504Y0092077D01*
X0107601Y0092095D01*
X0107699Y0092109D01*
X0107798Y0092119D01*
X0107897Y0092125D01*
X0107996Y0092127D01*
X0108095Y0092125D01*
X0108194Y0092119D01*
X0108293Y0092109D01*
X0108391Y0092095D01*
X0108488Y0092077D01*
X0108585Y0092055D01*
X0108681Y0092030D01*
X0108775Y0092000D01*
X0108869Y0091967D01*
X0108961Y0091930D01*
X0109051Y0091889D01*
X0109140Y0091845D01*
X0109226Y0091797D01*
X0109311Y0091746D01*
X0109394Y0091691D01*
X0109474Y0091633D01*
X0109552Y0091572D01*
X0109628Y0091508D01*
X0109701Y0091441D01*
X0109771Y0091371D01*
X0109838Y0091298D01*
X0109902Y0091222D01*
X0109963Y0091144D01*
X0110021Y0091064D01*
X0110076Y0090981D01*
X0110127Y0090897D01*
X0110175Y0090810D01*
X0110219Y0090721D01*
X0110260Y0090631D01*
X0110297Y0090539D01*
X0110330Y0090445D01*
X0110360Y0090351D01*
X0110385Y0090255D01*
X0110407Y0090158D01*
X0110425Y0090061D01*
X0110439Y0089963D01*
X0110449Y0089864D01*
X0110455Y0089765D01*
X0110457Y0089666D01*
X0110455Y0089567D01*
X0110449Y0089468D01*
X0110439Y0089369D01*
X0110425Y0089271D01*
X0110407Y0089174D01*
X0110385Y0089077D01*
X0110360Y0088981D01*
X0110330Y0088887D01*
X0110297Y0088793D01*
X0110260Y0088701D01*
X0110219Y0088611D01*
X0110175Y0088522D01*
X0110127Y0088436D01*
X0110076Y0088351D01*
X0110021Y0088268D01*
X0109963Y0088188D01*
X0109902Y0088110D01*
X0109838Y0088034D01*
X0109771Y0087961D01*
X0109701Y0087891D01*
X0109628Y0087824D01*
X0109552Y0087760D01*
X0109474Y0087699D01*
X0109394Y0087641D01*
X0109311Y0087586D01*
X0109227Y0087535D01*
X0109140Y0087487D01*
X0109051Y0087443D01*
X0108961Y0087402D01*
X0108869Y0087365D01*
X0108775Y0087332D01*
X0108681Y0087302D01*
X0108585Y0087277D01*
X0108488Y0087255D01*
X0108391Y0087237D01*
X0108293Y0087223D01*
X0108194Y0087213D01*
X0108095Y0087207D01*
X0107996Y0087205D01*
X0107897Y0087207D01*
X0107798Y0087213D01*
X0107699Y0087223D01*
X0107601Y0087237D01*
X0107504Y0087255D01*
X0107407Y0087277D01*
X0107311Y0087302D01*
X0107217Y0087332D01*
X0107123Y0087365D01*
X0107031Y0087402D01*
X0106941Y0087443D01*
X0106852Y0087487D01*
X0106766Y0087535D01*
X0106681Y0087586D01*
X0106598Y0087641D01*
X0106518Y0087699D01*
X0106440Y0087760D01*
X0106364Y0087824D01*
X0106291Y0087891D01*
X0106221Y0087961D01*
X0106154Y0088034D01*
X0106090Y0088110D01*
X0106029Y0088188D01*
X0105971Y0088268D01*
X0105916Y0088351D01*
X0105865Y0088435D01*
X0105817Y0088522D01*
X0105773Y0088611D01*
X0105732Y0088701D01*
X0105695Y0088793D01*
X0105662Y0088887D01*
X0105632Y0088981D01*
X0105607Y0089077D01*
X0105585Y0089174D01*
X0105567Y0089271D01*
X0105553Y0089369D01*
X0105543Y0089468D01*
X0105537Y0089567D01*
X0105535Y0089666D01*
X0060653Y0066044D02*
X0060655Y0066143D01*
X0060661Y0066242D01*
X0060671Y0066341D01*
X0060685Y0066439D01*
X0060703Y0066536D01*
X0060725Y0066633D01*
X0060750Y0066729D01*
X0060780Y0066823D01*
X0060813Y0066917D01*
X0060850Y0067009D01*
X0060891Y0067099D01*
X0060935Y0067188D01*
X0060983Y0067274D01*
X0061034Y0067359D01*
X0061089Y0067442D01*
X0061147Y0067522D01*
X0061208Y0067600D01*
X0061272Y0067676D01*
X0061339Y0067749D01*
X0061409Y0067819D01*
X0061482Y0067886D01*
X0061558Y0067950D01*
X0061636Y0068011D01*
X0061716Y0068069D01*
X0061799Y0068124D01*
X0061883Y0068175D01*
X0061970Y0068223D01*
X0062059Y0068267D01*
X0062149Y0068308D01*
X0062241Y0068345D01*
X0062335Y0068378D01*
X0062429Y0068408D01*
X0062525Y0068433D01*
X0062622Y0068455D01*
X0062719Y0068473D01*
X0062817Y0068487D01*
X0062916Y0068497D01*
X0063015Y0068503D01*
X0063114Y0068505D01*
X0063213Y0068503D01*
X0063312Y0068497D01*
X0063411Y0068487D01*
X0063509Y0068473D01*
X0063606Y0068455D01*
X0063703Y0068433D01*
X0063799Y0068408D01*
X0063893Y0068378D01*
X0063987Y0068345D01*
X0064079Y0068308D01*
X0064169Y0068267D01*
X0064258Y0068223D01*
X0064344Y0068175D01*
X0064429Y0068124D01*
X0064512Y0068069D01*
X0064592Y0068011D01*
X0064670Y0067950D01*
X0064746Y0067886D01*
X0064819Y0067819D01*
X0064889Y0067749D01*
X0064956Y0067676D01*
X0065020Y0067600D01*
X0065081Y0067522D01*
X0065139Y0067442D01*
X0065194Y0067359D01*
X0065245Y0067275D01*
X0065293Y0067188D01*
X0065337Y0067099D01*
X0065378Y0067009D01*
X0065415Y0066917D01*
X0065448Y0066823D01*
X0065478Y0066729D01*
X0065503Y0066633D01*
X0065525Y0066536D01*
X0065543Y0066439D01*
X0065557Y0066341D01*
X0065567Y0066242D01*
X0065573Y0066143D01*
X0065575Y0066044D01*
X0065573Y0065945D01*
X0065567Y0065846D01*
X0065557Y0065747D01*
X0065543Y0065649D01*
X0065525Y0065552D01*
X0065503Y0065455D01*
X0065478Y0065359D01*
X0065448Y0065265D01*
X0065415Y0065171D01*
X0065378Y0065079D01*
X0065337Y0064989D01*
X0065293Y0064900D01*
X0065245Y0064814D01*
X0065194Y0064729D01*
X0065139Y0064646D01*
X0065081Y0064566D01*
X0065020Y0064488D01*
X0064956Y0064412D01*
X0064889Y0064339D01*
X0064819Y0064269D01*
X0064746Y0064202D01*
X0064670Y0064138D01*
X0064592Y0064077D01*
X0064512Y0064019D01*
X0064429Y0063964D01*
X0064345Y0063913D01*
X0064258Y0063865D01*
X0064169Y0063821D01*
X0064079Y0063780D01*
X0063987Y0063743D01*
X0063893Y0063710D01*
X0063799Y0063680D01*
X0063703Y0063655D01*
X0063606Y0063633D01*
X0063509Y0063615D01*
X0063411Y0063601D01*
X0063312Y0063591D01*
X0063213Y0063585D01*
X0063114Y0063583D01*
X0063015Y0063585D01*
X0062916Y0063591D01*
X0062817Y0063601D01*
X0062719Y0063615D01*
X0062622Y0063633D01*
X0062525Y0063655D01*
X0062429Y0063680D01*
X0062335Y0063710D01*
X0062241Y0063743D01*
X0062149Y0063780D01*
X0062059Y0063821D01*
X0061970Y0063865D01*
X0061884Y0063913D01*
X0061799Y0063964D01*
X0061716Y0064019D01*
X0061636Y0064077D01*
X0061558Y0064138D01*
X0061482Y0064202D01*
X0061409Y0064269D01*
X0061339Y0064339D01*
X0061272Y0064412D01*
X0061208Y0064488D01*
X0061147Y0064566D01*
X0061089Y0064646D01*
X0061034Y0064729D01*
X0060983Y0064813D01*
X0060935Y0064900D01*
X0060891Y0064989D01*
X0060850Y0065079D01*
X0060813Y0065171D01*
X0060780Y0065265D01*
X0060750Y0065359D01*
X0060725Y0065455D01*
X0060703Y0065552D01*
X0060685Y0065649D01*
X0060671Y0065747D01*
X0060661Y0065846D01*
X0060655Y0065945D01*
X0060653Y0066044D01*
X0071854Y0396753D02*
X0071856Y0396901D01*
X0071862Y0397049D01*
X0071872Y0397197D01*
X0071886Y0397344D01*
X0071904Y0397491D01*
X0071925Y0397637D01*
X0071951Y0397783D01*
X0071981Y0397928D01*
X0072014Y0398072D01*
X0072052Y0398215D01*
X0072093Y0398357D01*
X0072138Y0398498D01*
X0072186Y0398638D01*
X0072239Y0398777D01*
X0072295Y0398914D01*
X0072355Y0399049D01*
X0072418Y0399183D01*
X0072485Y0399315D01*
X0072556Y0399445D01*
X0072630Y0399573D01*
X0072707Y0399699D01*
X0072788Y0399823D01*
X0072872Y0399945D01*
X0072959Y0400064D01*
X0073050Y0400181D01*
X0073144Y0400296D01*
X0073240Y0400408D01*
X0073340Y0400518D01*
X0073442Y0400624D01*
X0073548Y0400728D01*
X0073656Y0400829D01*
X0073767Y0400927D01*
X0073880Y0401023D01*
X0073996Y0401115D01*
X0074114Y0401204D01*
X0074235Y0401289D01*
X0074358Y0401372D01*
X0074483Y0401451D01*
X0074610Y0401527D01*
X0074739Y0401599D01*
X0074870Y0401668D01*
X0075003Y0401733D01*
X0075138Y0401794D01*
X0075274Y0401852D01*
X0075411Y0401907D01*
X0075550Y0401957D01*
X0075691Y0402004D01*
X0075832Y0402047D01*
X0075975Y0402087D01*
X0076119Y0402122D01*
X0076263Y0402154D01*
X0076409Y0402181D01*
X0076555Y0402205D01*
X0076702Y0402225D01*
X0076849Y0402241D01*
X0076996Y0402253D01*
X0077144Y0402261D01*
X0077292Y0402265D01*
X0077440Y0402265D01*
X0077588Y0402261D01*
X0077736Y0402253D01*
X0077883Y0402241D01*
X0078030Y0402225D01*
X0078177Y0402205D01*
X0078323Y0402181D01*
X0078469Y0402154D01*
X0078613Y0402122D01*
X0078757Y0402087D01*
X0078900Y0402047D01*
X0079041Y0402004D01*
X0079182Y0401957D01*
X0079321Y0401907D01*
X0079458Y0401852D01*
X0079594Y0401794D01*
X0079729Y0401733D01*
X0079862Y0401668D01*
X0079993Y0401599D01*
X0080122Y0401527D01*
X0080249Y0401451D01*
X0080374Y0401372D01*
X0080497Y0401289D01*
X0080618Y0401204D01*
X0080736Y0401115D01*
X0080852Y0401023D01*
X0080965Y0400927D01*
X0081076Y0400829D01*
X0081184Y0400728D01*
X0081290Y0400624D01*
X0081392Y0400518D01*
X0081492Y0400408D01*
X0081588Y0400296D01*
X0081682Y0400181D01*
X0081773Y0400064D01*
X0081860Y0399945D01*
X0081944Y0399823D01*
X0082025Y0399699D01*
X0082102Y0399573D01*
X0082176Y0399445D01*
X0082247Y0399315D01*
X0082314Y0399183D01*
X0082377Y0399049D01*
X0082437Y0398914D01*
X0082493Y0398777D01*
X0082546Y0398638D01*
X0082594Y0398498D01*
X0082639Y0398357D01*
X0082680Y0398215D01*
X0082718Y0398072D01*
X0082751Y0397928D01*
X0082781Y0397783D01*
X0082807Y0397637D01*
X0082828Y0397491D01*
X0082846Y0397344D01*
X0082860Y0397197D01*
X0082870Y0397049D01*
X0082876Y0396901D01*
X0082878Y0396753D01*
X0082876Y0396605D01*
X0082870Y0396457D01*
X0082860Y0396309D01*
X0082846Y0396162D01*
X0082828Y0396015D01*
X0082807Y0395869D01*
X0082781Y0395723D01*
X0082751Y0395578D01*
X0082718Y0395434D01*
X0082680Y0395291D01*
X0082639Y0395149D01*
X0082594Y0395008D01*
X0082546Y0394868D01*
X0082493Y0394729D01*
X0082437Y0394592D01*
X0082377Y0394457D01*
X0082314Y0394323D01*
X0082247Y0394191D01*
X0082176Y0394061D01*
X0082102Y0393933D01*
X0082025Y0393807D01*
X0081944Y0393683D01*
X0081860Y0393561D01*
X0081773Y0393442D01*
X0081682Y0393325D01*
X0081588Y0393210D01*
X0081492Y0393098D01*
X0081392Y0392988D01*
X0081290Y0392882D01*
X0081184Y0392778D01*
X0081076Y0392677D01*
X0080965Y0392579D01*
X0080852Y0392483D01*
X0080736Y0392391D01*
X0080618Y0392302D01*
X0080497Y0392217D01*
X0080374Y0392134D01*
X0080249Y0392055D01*
X0080122Y0391979D01*
X0079993Y0391907D01*
X0079862Y0391838D01*
X0079729Y0391773D01*
X0079594Y0391712D01*
X0079458Y0391654D01*
X0079321Y0391599D01*
X0079182Y0391549D01*
X0079041Y0391502D01*
X0078900Y0391459D01*
X0078757Y0391419D01*
X0078613Y0391384D01*
X0078469Y0391352D01*
X0078323Y0391325D01*
X0078177Y0391301D01*
X0078030Y0391281D01*
X0077883Y0391265D01*
X0077736Y0391253D01*
X0077588Y0391245D01*
X0077440Y0391241D01*
X0077292Y0391241D01*
X0077144Y0391245D01*
X0076996Y0391253D01*
X0076849Y0391265D01*
X0076702Y0391281D01*
X0076555Y0391301D01*
X0076409Y0391325D01*
X0076263Y0391352D01*
X0076119Y0391384D01*
X0075975Y0391419D01*
X0075832Y0391459D01*
X0075691Y0391502D01*
X0075550Y0391549D01*
X0075411Y0391599D01*
X0075274Y0391654D01*
X0075138Y0391712D01*
X0075003Y0391773D01*
X0074870Y0391838D01*
X0074739Y0391907D01*
X0074610Y0391979D01*
X0074483Y0392055D01*
X0074358Y0392134D01*
X0074235Y0392217D01*
X0074114Y0392302D01*
X0073996Y0392391D01*
X0073880Y0392483D01*
X0073767Y0392579D01*
X0073656Y0392677D01*
X0073548Y0392778D01*
X0073442Y0392882D01*
X0073340Y0392988D01*
X0073240Y0393098D01*
X0073144Y0393210D01*
X0073050Y0393325D01*
X0072959Y0393442D01*
X0072872Y0393561D01*
X0072788Y0393683D01*
X0072707Y0393807D01*
X0072630Y0393933D01*
X0072556Y0394061D01*
X0072485Y0394191D01*
X0072418Y0394323D01*
X0072355Y0394457D01*
X0072295Y0394592D01*
X0072239Y0394729D01*
X0072186Y0394868D01*
X0072138Y0395008D01*
X0072093Y0395149D01*
X0072052Y0395291D01*
X0072014Y0395434D01*
X0071981Y0395578D01*
X0071951Y0395723D01*
X0071925Y0395869D01*
X0071904Y0396015D01*
X0071886Y0396162D01*
X0071872Y0396309D01*
X0071862Y0396457D01*
X0071856Y0396605D01*
X0071854Y0396753D01*
X0335634Y0396753D02*
X0335636Y0396901D01*
X0335642Y0397049D01*
X0335652Y0397197D01*
X0335666Y0397344D01*
X0335684Y0397491D01*
X0335705Y0397637D01*
X0335731Y0397783D01*
X0335761Y0397928D01*
X0335794Y0398072D01*
X0335832Y0398215D01*
X0335873Y0398357D01*
X0335918Y0398498D01*
X0335966Y0398638D01*
X0336019Y0398777D01*
X0336075Y0398914D01*
X0336135Y0399049D01*
X0336198Y0399183D01*
X0336265Y0399315D01*
X0336336Y0399445D01*
X0336410Y0399573D01*
X0336487Y0399699D01*
X0336568Y0399823D01*
X0336652Y0399945D01*
X0336739Y0400064D01*
X0336830Y0400181D01*
X0336924Y0400296D01*
X0337020Y0400408D01*
X0337120Y0400518D01*
X0337222Y0400624D01*
X0337328Y0400728D01*
X0337436Y0400829D01*
X0337547Y0400927D01*
X0337660Y0401023D01*
X0337776Y0401115D01*
X0337894Y0401204D01*
X0338015Y0401289D01*
X0338138Y0401372D01*
X0338263Y0401451D01*
X0338390Y0401527D01*
X0338519Y0401599D01*
X0338650Y0401668D01*
X0338783Y0401733D01*
X0338918Y0401794D01*
X0339054Y0401852D01*
X0339191Y0401907D01*
X0339330Y0401957D01*
X0339471Y0402004D01*
X0339612Y0402047D01*
X0339755Y0402087D01*
X0339899Y0402122D01*
X0340043Y0402154D01*
X0340189Y0402181D01*
X0340335Y0402205D01*
X0340482Y0402225D01*
X0340629Y0402241D01*
X0340776Y0402253D01*
X0340924Y0402261D01*
X0341072Y0402265D01*
X0341220Y0402265D01*
X0341368Y0402261D01*
X0341516Y0402253D01*
X0341663Y0402241D01*
X0341810Y0402225D01*
X0341957Y0402205D01*
X0342103Y0402181D01*
X0342249Y0402154D01*
X0342393Y0402122D01*
X0342537Y0402087D01*
X0342680Y0402047D01*
X0342821Y0402004D01*
X0342962Y0401957D01*
X0343101Y0401907D01*
X0343238Y0401852D01*
X0343374Y0401794D01*
X0343509Y0401733D01*
X0343642Y0401668D01*
X0343773Y0401599D01*
X0343902Y0401527D01*
X0344029Y0401451D01*
X0344154Y0401372D01*
X0344277Y0401289D01*
X0344398Y0401204D01*
X0344516Y0401115D01*
X0344632Y0401023D01*
X0344745Y0400927D01*
X0344856Y0400829D01*
X0344964Y0400728D01*
X0345070Y0400624D01*
X0345172Y0400518D01*
X0345272Y0400408D01*
X0345368Y0400296D01*
X0345462Y0400181D01*
X0345553Y0400064D01*
X0345640Y0399945D01*
X0345724Y0399823D01*
X0345805Y0399699D01*
X0345882Y0399573D01*
X0345956Y0399445D01*
X0346027Y0399315D01*
X0346094Y0399183D01*
X0346157Y0399049D01*
X0346217Y0398914D01*
X0346273Y0398777D01*
X0346326Y0398638D01*
X0346374Y0398498D01*
X0346419Y0398357D01*
X0346460Y0398215D01*
X0346498Y0398072D01*
X0346531Y0397928D01*
X0346561Y0397783D01*
X0346587Y0397637D01*
X0346608Y0397491D01*
X0346626Y0397344D01*
X0346640Y0397197D01*
X0346650Y0397049D01*
X0346656Y0396901D01*
X0346658Y0396753D01*
X0346656Y0396605D01*
X0346650Y0396457D01*
X0346640Y0396309D01*
X0346626Y0396162D01*
X0346608Y0396015D01*
X0346587Y0395869D01*
X0346561Y0395723D01*
X0346531Y0395578D01*
X0346498Y0395434D01*
X0346460Y0395291D01*
X0346419Y0395149D01*
X0346374Y0395008D01*
X0346326Y0394868D01*
X0346273Y0394729D01*
X0346217Y0394592D01*
X0346157Y0394457D01*
X0346094Y0394323D01*
X0346027Y0394191D01*
X0345956Y0394061D01*
X0345882Y0393933D01*
X0345805Y0393807D01*
X0345724Y0393683D01*
X0345640Y0393561D01*
X0345553Y0393442D01*
X0345462Y0393325D01*
X0345368Y0393210D01*
X0345272Y0393098D01*
X0345172Y0392988D01*
X0345070Y0392882D01*
X0344964Y0392778D01*
X0344856Y0392677D01*
X0344745Y0392579D01*
X0344632Y0392483D01*
X0344516Y0392391D01*
X0344398Y0392302D01*
X0344277Y0392217D01*
X0344154Y0392134D01*
X0344029Y0392055D01*
X0343902Y0391979D01*
X0343773Y0391907D01*
X0343642Y0391838D01*
X0343509Y0391773D01*
X0343374Y0391712D01*
X0343238Y0391654D01*
X0343101Y0391599D01*
X0342962Y0391549D01*
X0342821Y0391502D01*
X0342680Y0391459D01*
X0342537Y0391419D01*
X0342393Y0391384D01*
X0342249Y0391352D01*
X0342103Y0391325D01*
X0341957Y0391301D01*
X0341810Y0391281D01*
X0341663Y0391265D01*
X0341516Y0391253D01*
X0341368Y0391245D01*
X0341220Y0391241D01*
X0341072Y0391241D01*
X0340924Y0391245D01*
X0340776Y0391253D01*
X0340629Y0391265D01*
X0340482Y0391281D01*
X0340335Y0391301D01*
X0340189Y0391325D01*
X0340043Y0391352D01*
X0339899Y0391384D01*
X0339755Y0391419D01*
X0339612Y0391459D01*
X0339471Y0391502D01*
X0339330Y0391549D01*
X0339191Y0391599D01*
X0339054Y0391654D01*
X0338918Y0391712D01*
X0338783Y0391773D01*
X0338650Y0391838D01*
X0338519Y0391907D01*
X0338390Y0391979D01*
X0338263Y0392055D01*
X0338138Y0392134D01*
X0338015Y0392217D01*
X0337894Y0392302D01*
X0337776Y0392391D01*
X0337660Y0392483D01*
X0337547Y0392579D01*
X0337436Y0392677D01*
X0337328Y0392778D01*
X0337222Y0392882D01*
X0337120Y0392988D01*
X0337020Y0393098D01*
X0336924Y0393210D01*
X0336830Y0393325D01*
X0336739Y0393442D01*
X0336652Y0393561D01*
X0336568Y0393683D01*
X0336487Y0393807D01*
X0336410Y0393933D01*
X0336336Y0394061D01*
X0336265Y0394191D01*
X0336198Y0394323D01*
X0336135Y0394457D01*
X0336075Y0394592D01*
X0336019Y0394729D01*
X0335966Y0394868D01*
X0335918Y0395008D01*
X0335873Y0395149D01*
X0335832Y0395291D01*
X0335794Y0395434D01*
X0335761Y0395578D01*
X0335731Y0395723D01*
X0335705Y0395869D01*
X0335684Y0396015D01*
X0335666Y0396162D01*
X0335652Y0396309D01*
X0335642Y0396457D01*
X0335636Y0396605D01*
X0335634Y0396753D01*
D11*
X0167248Y0400690D03*
X0208862Y0031300D03*
M02*
