%
M48
M72
T01C0.01181
T02C0.01378
T03C0.02500
T04C0.03150
T05C0.03200
T06C0.03543
T07C0.03937
T08C0.04000
T09C0.04400
T10C0.04724
T11C0.04921
T12C0.05118
T13C0.07874
T14C0.11024
%
T01
X158248Y150000
X115848Y210800
X91848Y204400
X87848Y200400
X77448Y221200
X151048Y293200
X109448Y308400
X218248Y236400
X219048Y233200
X223048Y228400
X247848Y200400
T02
X198248Y226800
X181248Y231800
X183248Y200800
X129248Y280800
X86248Y222800
X82248Y201800
X179248Y93800
X122248Y372800
T03
X52248Y330643
X52248Y310957
X47248Y203643
X47248Y183957
X104906Y192800
X124591Y192800
X170748Y176143
X170748Y156457
X224748Y233957
X224748Y253643
X209433Y263800
X189748Y263800
X202248Y316300
X221933Y316300
X199748Y341457
X217406Y346300
X217406Y356300
X199748Y361143
X237091Y356300
X237091Y346300
X262248Y338957
X262248Y358643
X269406Y309800
X279748Y296143
X296248Y296143
X289091Y309800
X296248Y276457
X279748Y276457
X274591Y241300
X274591Y228800
X254906Y228800
X254906Y241300
T04
X253311Y261300
X261185Y261300
X227248Y284863
X227248Y292737
X198685Y278800
X190811Y278800
X228311Y331300
X236185Y331300
X256248Y392863
X256248Y400737
X298311Y393800
X306185Y393800
X243685Y221300
X235811Y221300
X205185Y179300
X197311Y179300
X245811Y173800
X253685Y173800
X197248Y92737
X197248Y84863
X149748Y45237
X149748Y37363
X124748Y64863
X124748Y72737
X76185Y228800
X68311Y228800
X53685Y228800
X45811Y228800
X108311Y233800
X116185Y233800
X116185Y283300
X108311Y283300
T05
X90988Y270711
X80988Y270711
X70988Y270711
X70988Y247089
X80988Y247089
X90988Y247089
X132169Y248800
X132169Y258800
X132169Y268800
X155791Y268800
X155791Y258800
X155791Y248800
X153980Y300296
X143980Y300296
X133980Y300296
X133980Y323918
X143980Y323918
X153980Y323918
X153980Y353446
X143980Y353446
X133980Y353446
X133980Y377068
X143980Y377068
X153980Y377068
X90988Y377068
X80988Y377068
X70988Y377068
X70988Y353446
X80988Y353446
X90988Y353446
X90988Y323918
X80988Y323918
X70988Y323918
X70988Y300296
X80988Y300296
X90988Y300296
X240248Y308800
X247748Y313800
X247748Y303800
X247248Y288800
X254748Y283800
X247248Y278800
X244748Y371300
X239748Y378800
X249748Y378800
X277248Y383800
X284748Y388800
X277248Y393800
X214256Y136910
X204256Y136910
X212248Y113800
X217248Y106300
X222248Y113800
T06
X152248Y73800
X152248Y63800
X164748Y38800
X174748Y38800
X308248Y275300
X308248Y285300
X322748Y286300
X322748Y276300
X182748Y347300
X182748Y357300
X169748Y358800
X169748Y348800
X117248Y388800
X117248Y398800
X104748Y398800
X104748Y388800
T07
X90831Y286459
X80988Y286459
X71146Y286459
X116421Y268643
X116421Y258800
X116421Y248957
X171539Y211871
X171539Y202028
X171539Y192186
X296185Y369194
X306028Y369194
X315870Y369194
T08
X236248Y83800
X237248Y61800
X109748Y46300
X94748Y46300
T09
X252248Y66300
X262248Y66300
X272248Y66300
X282248Y66300
X292248Y66300
X302248Y66300
T10
X302091Y258957
X309965Y258957
X317839Y258957
X325713Y258957
X294217Y258957
X286343Y258957
T11
X63114Y66044
X107996Y89666
T12
X98154Y83761
X98154Y71950
X85555Y71950
X85555Y83761
X72957Y83761
X72957Y71950
X53469Y104961
X103469Y104961
X103469Y168859
X53469Y168859
X315083Y168859
X365083Y168859
X365083Y104961
X315083Y104961
T13
X329650Y215650
X282406Y215650
X288705Y341635
X323350Y341635
X143980Y276123
X143980Y241477
X143980Y219351
X143980Y184706
X98311Y258900
X63665Y258900
T14
X77366Y396753
X341146Y396753
M30
